<svg width="25" height="24" viewBox="0 0 25 24" fill="none" xmlns="http://www.w3.org/2000/svg">
<g id="ic:outline-energy-savings-leaf">
<path id="Vector" d="M12.5 3C7.7 3 3.5 6.86 3.5 12C3.5 14.12 4.24 16.07 5.47 17.61L3.5 19.59L4.91 21L6.88 19.03C8.47597 20.3045 10.4576 20.9992 12.5 21C14.8 21 17.11 20.12 18.86 18.36C19.6982 17.5267 20.363 16.5357 20.8162 15.4441C21.2693 14.3525 21.5017 13.1819 21.5 12V3H12.5ZM19.5 12C19.5 13.87 18.77 15.63 17.45 16.95C16.8013 17.6018 16.0298 18.1185 15.1802 18.4704C14.3305 18.8223 13.4196 19.0023 12.5 19C8.64 19 5.5 15.86 5.5 12C5.5 10.1 6.24 8.32 7.6 7.01C8.90341 5.7186 10.6652 4.99592 12.5 5H19.5V12Z" fill="#E4E4E5"/>
<path id="Vector_2" d="M8.96156 12.6304L13.0116 13.0304L10.5716 16.3604C10.4616 16.5204 10.4716 16.7404 10.6116 16.8804C10.7616 17.0304 11.0116 17.0404 11.1716 16.8904L16.3316 12.2604C16.6616 11.9604 16.4816 11.4104 16.0316 11.3704L11.9816 10.9704L14.4216 7.6404C14.5316 7.4804 14.5216 7.2604 14.3816 7.1204C14.3075 7.04692 14.2079 7.00486 14.1036 7.00299C13.9992 7.00113 13.8982 7.03961 13.8216 7.1104L8.66156 11.7404C8.34156 12.0404 8.52156 12.5904 8.96156 12.6304Z" fill="#E4E4E5"/>
</g>
</svg>
