<svg width="116" height="56" viewBox="0 0 116 56" fill="none" xmlns="http://www.w3.org/2000/svg">
<path d="M15.9687 28.5875V17.2825L20.6026 14.606H30.7092L35.3431 17.2825V22.5954H29.7505V19.3996H21.5613V26.0708H30.7092L35.3431 28.7473V40.292L30.7092 42.9684H20.2031L15.5693 40.292V34.979H21.1619V38.1748H29.7505V31.2639H20.6026L15.9687 28.5875ZM54.1291 30.1454H54.0492L50.5339 42.7687H44.8614L39.7482 22.7952H44.8214L47.9373 35.5383H48.0172L51.5725 22.7952H56.6058L60.1611 35.5383H60.241L63.3569 22.7952H68.4301L63.3169 42.7687H57.6444L54.1291 30.1454ZM77.0818 34.8991V38.3745H82.7143V34.8991H77.0818ZM76.2429 42.9684L71.6091 40.292V33.3811L76.2429 30.7047H82.7143V27.469H73.6064V22.7952H83.5532L88.1871 25.4716V42.9684H85.5506L82.7143 41.3306L79.8781 42.9684H76.2429ZM107.718 42.9684H102.485L99.6488 41.3306V50.7581H94.176V22.5954H98.69L99.6488 24.2332L102.485 22.5954H107.718L112.352 25.2719V40.292L107.718 42.9684ZM99.6488 27.2692V38.2946H106.879V27.2692H99.6488Z" fill="white"/>
<path d="M9.29731 8.60643L2.30313 12.6307C1.97362 12.8203 1.77051 13.1715 1.77051 13.5516V21.7359C1.77051 22.1477 2.21961 22.4026 2.57374 22.1922L9.57286 18.0352C9.89521 17.8438 10.0935 17.4962 10.0935 17.1213V9.0669C10.0935 8.65829 9.65148 8.40265 9.29731 8.60643Z" fill="#949494"/>
<path d="M9.29688 23.1288L2.30227 27.1619C1.97324 27.3517 1.77051 27.7026 1.77051 28.0824V46.3498C1.77051 46.7619 2.21936 47.0171 2.57348 46.8063L9.57443 42.6393C9.89629 42.4477 10.0935 42.1008 10.0935 41.7263V23.589C10.0935 23.1802 9.65105 22.9246 9.29688 23.1288Z" fill="#949494"/>
<path d="M8.76606 8.07554L1.77188 12.0998C1.44237 12.2894 1.23926 12.6406 1.23926 13.0208V21.205C1.23926 21.6169 1.68836 21.8717 2.04249 21.6613L9.04161 17.5043C9.36396 17.3129 9.56226 16.9653 9.56226 16.5904V8.53602C9.56226 8.12741 9.12023 7.87176 8.76606 8.07554Z" fill="white"/>
<path d="M8.76563 22.5979L1.77102 26.631C1.44199 26.8208 1.23926 27.1717 1.23926 27.5515V45.8189C1.23926 46.231 1.68811 46.4862 2.04223 46.2754L9.04318 42.1084C9.36504 41.9168 9.56226 41.5699 9.56226 41.1954V23.0581C9.56226 22.6493 9.1198 22.3937 8.76563 22.5979Z" fill="white"/>
</svg>
