<svg width="121" height="34" viewBox="0 0 121 34" fill="none" xmlns="http://www.w3.org/2000/svg">
<path d="M9.68861 18.1598V11.3006L12.5002 9.6767H18.6323L21.4438 11.3006V14.5242H18.0506V12.5852H13.0819V16.6329H18.6323L21.4438 18.2568V25.2614L18.6323 26.8853H12.2578L9.44623 25.2614V22.0378H12.8395V23.9768H18.0506V19.7837H12.5002L9.68861 18.1598ZM32.8421 19.1051H32.7936L30.6607 26.7642H27.219L24.1166 14.6454H27.1947L29.0853 22.3772H29.1337L31.2909 14.6454H34.3448L36.502 22.3772H36.5504L38.441 14.6454H41.5191L38.4167 26.7642H34.975L32.8421 19.1051ZM46.7684 21.9894V24.098H50.1859V21.9894H46.7684ZM46.2595 26.8853L43.4479 25.2614V21.0683L46.2595 19.4444H50.1859V17.4812H44.6598V14.6454H50.6949L53.5065 16.2693V26.8853H51.9068L50.1859 25.8916L48.4651 26.8853H46.2595ZM65.3567 26.8853H62.1816L60.4608 25.8916V31.6117H57.1402V14.5242H59.8791L60.4608 15.5179L62.1816 14.5242H65.3567L68.1683 16.1481V25.2614L65.3567 26.8853ZM60.4608 17.36V24.0496H64.8478V17.36H60.4608Z" fill="white"/>
<path d="M5.64055 5.51941L1.39689 7.9611C1.19697 8.07613 1.07373 8.28922 1.07373 8.51988V13.4856C1.07373 13.7355 1.34622 13.8901 1.56108 13.7625L5.80774 11.2402C6.00332 11.1241 6.12364 10.9132 6.12364 10.6857V5.7988C6.12364 5.55088 5.85544 5.39577 5.64055 5.51941Z" fill="#949494"/>
<path d="M5.64029 14.3307L1.39638 16.7778C1.19674 16.8929 1.07373 17.1058 1.07373 17.3363V28.4199C1.07373 28.6699 1.34607 28.8247 1.56093 28.6969L5.8087 26.1685C6.00398 26.0523 6.12364 25.8418 6.12364 25.6146V14.6099C6.12364 14.3619 5.85518 14.2068 5.64029 14.3307Z" fill="#949494"/>
<path d="M5.31829 5.19739L1.07463 7.63908C0.8747 7.75411 0.751465 7.9672 0.751465 8.19786V13.1636C0.751465 13.4135 1.02395 13.5681 1.23882 13.4405L5.48548 10.9182C5.68106 10.8021 5.80137 10.5912 5.80137 10.3637V5.47678C5.80137 5.22886 5.53317 5.07375 5.31829 5.19739Z" fill="white"/>
<path d="M5.31803 14.0087L1.07411 16.4558C0.874474 16.5709 0.751465 16.7838 0.751465 17.0142V28.0978C0.751465 28.3479 1.0238 28.5027 1.23866 28.3748L5.48643 25.8465C5.68172 25.7303 5.80137 25.5198 5.80137 25.2926V14.2879C5.80137 14.0399 5.53292 13.8848 5.31803 14.0087Z" fill="white"/>
<g clip-path="url(#clip0_510_2835)">
<rect x="72.0542" y="11.5" width="48" height="14" rx="7" fill="url(#paint0_linear_510_2835)"/>
<path d="M82.2942 15.05V15.98H80.4442V22H79.3042V15.98H77.4442V15.05H82.2942ZM84.0887 15.97V18.01H86.4887V18.94H84.0887V21.07H86.7887V22H82.9487V15.04H86.7887V15.97H84.0887ZM89.9829 22.07C89.5162 22.07 89.0962 21.99 88.7229 21.83C88.3495 21.6633 88.0562 21.43 87.8429 21.13C87.6295 20.83 87.5229 20.48 87.5229 20.08H88.7429C88.7695 20.38 88.8862 20.6267 89.0929 20.82C89.3062 21.0133 89.6029 21.11 89.9829 21.11C90.3762 21.11 90.6829 21.0167 90.9029 20.83C91.1229 20.6367 91.2329 20.39 91.2329 20.09C91.2329 19.8567 91.1629 19.6667 91.0229 19.52C90.8895 19.3733 90.7195 19.26 90.5129 19.18C90.3129 19.1 90.0329 19.0133 89.6729 18.92C89.2195 18.8 88.8495 18.68 88.5629 18.56C88.2829 18.4333 88.0429 18.24 87.8429 17.98C87.6429 17.72 87.5429 17.3733 87.5429 16.94C87.5429 16.54 87.6429 16.19 87.8429 15.89C88.0429 15.59 88.3229 15.36 88.6829 15.2C89.0429 15.04 89.4595 14.96 89.9329 14.96C90.6062 14.96 91.1562 15.13 91.5829 15.47C92.0162 15.8033 92.2562 16.2633 92.3029 16.85H91.0429C91.0229 16.5967 90.9029 16.38 90.6829 16.2C90.4629 16.02 90.1729 15.93 89.8129 15.93C89.4862 15.93 89.2195 16.0133 89.0129 16.18C88.8062 16.3467 88.7029 16.5867 88.7029 16.9C88.7029 17.1133 88.7662 17.29 88.8929 17.43C89.0262 17.5633 89.1929 17.67 89.3929 17.75C89.5929 17.83 89.8662 17.9167 90.2129 18.01C90.6729 18.1367 91.0462 18.2633 91.3329 18.39C91.6262 18.5167 91.8729 18.7133 92.0729 18.98C92.2795 19.24 92.3829 19.59 92.3829 20.03C92.3829 20.3833 92.2862 20.7167 92.0929 21.03C91.9062 21.3433 91.6295 21.5967 91.2629 21.79C90.9029 21.9767 90.4762 22.07 89.9829 22.07ZM97.718 15.05V15.98H95.868V22H94.728V15.98H92.868V15.05H97.718ZM104.083 22H102.943L99.5126 16.81V22H98.3726V15.04H99.5126L102.943 20.22V15.04H104.083V22ZM106.22 15.97V18.01H108.62V18.94H106.22V21.07H108.92V22H105.08V15.04H108.92V15.97H106.22ZM114.314 15.05V15.98H112.464V22H111.324V15.98H109.464V15.05H114.314Z" fill="#F4F4F4"/>
</g>
<defs>
<linearGradient id="paint0_linear_510_2835" x1="67.5259" y1="8.18421" x2="113.697" y2="32.4317" gradientUnits="userSpaceOnUse">
<stop stop-color="#5142FF"/>
<stop offset="1" stop-color="#BC42FF"/>
</linearGradient>
<clipPath id="clip0_510_2835">
<rect x="72.0542" y="11.5" width="48" height="14" rx="7" fill="white"/>
</clipPath>
</defs>
</svg>
