<svg width="25" height="24" viewBox="0 0 25 24" fill="none" xmlns="http://www.w3.org/2000/svg">
<g id="la:coins">
<path id="Vector" d="M16.6257 1.5C15.1315 1.5 13.7773 1.78 12.719 2.3075C11.6615 2.835 10.7923 3.69417 10.7923 4.83333V8.16667C10.7923 8.27417 10.8282 8.37833 10.8448 8.47917C10.0107 8.2672 9.15296 8.16219 8.29232 8.16667C6.79815 8.16667 5.44398 8.44667 4.38565 8.97417C3.32815 9.50167 2.45898 10.3608 2.45898 11.5V18.1667C2.45898 19.3058 3.32815 20.165 4.38648 20.6925C5.44398 21.22 6.79815 21.5 8.29232 21.5C9.78648 21.5 11.1407 21.22 12.199 20.6925C13.2557 20.165 14.1257 19.3058 14.1257 18.1667V17.8283C14.9409 18.0487 15.7812 18.1624 16.6257 18.1667C18.1198 18.1667 19.474 17.8867 20.5323 17.3592C21.589 16.8317 22.459 15.9725 22.459 14.8333V4.83333C22.459 3.69417 21.5898 2.835 20.5315 2.3075C19.4748 1.78 18.1207 1.5 16.6257 1.5ZM16.6257 3.16667C17.8948 3.16667 19.0248 3.44 19.7765 3.8175C20.529 4.195 20.7923 4.5925 20.7923 4.83333C20.7923 5.075 20.529 5.47167 19.7765 5.84917C19.0257 6.22667 17.8948 6.5 16.6257 6.5C15.3565 6.5 14.2265 6.22667 13.4748 5.84917C12.7223 5.47167 12.459 5.07417 12.459 4.83333C12.459 4.59167 12.7223 4.195 13.4748 3.8175C14.2257 3.44 15.3565 3.16667 16.6257 3.16667ZM12.459 7.20333C12.5465 7.25167 12.6282 7.31417 12.7198 7.35917C13.7773 7.88667 15.1315 8.16667 16.6257 8.16667C18.1198 8.16667 19.474 7.88667 20.5323 7.35917C20.6231 7.31417 20.7048 7.25167 20.7923 7.20333V8.16667C20.7923 8.40833 20.529 8.805 19.7765 9.1825C19.0248 9.56 17.8948 9.83333 16.6257 9.83333C15.3565 9.83333 14.2265 9.56 13.4748 9.1825C12.7223 8.805 12.459 8.4075 12.459 8.16667V7.20333ZM8.29232 9.83333C9.56148 9.83333 10.6915 10.1067 11.4432 10.4842C12.1957 10.8617 12.459 11.2592 12.459 11.5C12.459 11.7417 12.1957 12.1383 11.4432 12.5158C10.6915 12.8933 9.56148 13.1667 8.29232 13.1667C7.02315 13.1667 5.89315 12.8933 5.14148 12.5158C4.38898 12.1383 4.12565 11.7408 4.12565 11.5C4.12565 11.2583 4.38898 10.8617 5.14148 10.4842C5.89232 10.1067 7.02315 9.83333 8.29232 9.83333ZM20.7923 10.5367V11.5C20.7923 11.7417 20.529 12.1383 19.7765 12.5158C19.0248 12.8933 17.8948 13.1667 16.6257 13.1667C15.7768 13.1713 14.9326 13.0393 14.1257 12.7758V11.5C14.1257 11.3925 14.0898 11.2883 14.0732 11.1875C14.8482 11.3892 15.7073 11.5 16.6257 11.5C18.1198 11.5 19.474 11.22 20.5323 10.6925C20.6231 10.6475 20.7048 10.585 20.7923 10.5367ZM4.12565 13.87C4.21315 13.9183 4.29482 13.9808 4.38648 14.0258C5.44398 14.5533 6.79815 14.8333 8.29232 14.8333C9.78648 14.8333 11.1407 14.5533 12.199 14.0258C12.2898 13.9808 12.3715 13.9183 12.459 13.87V14.8333C12.459 15.075 12.1957 15.4717 11.4432 15.8492C10.6915 16.2267 9.56148 16.5 8.29232 16.5C7.02315 16.5 5.89315 16.2267 5.14148 15.8492C4.38898 15.4717 4.12565 15.0742 4.12565 14.8333V13.87ZM20.7923 13.87V14.8333C20.7923 15.075 20.529 15.4717 19.7765 15.8492C19.0248 16.2267 17.8948 16.5 16.6257 16.5C15.6782 16.5 14.8223 16.3667 14.1257 16.135V14.5208C14.8907 14.7225 15.724 14.8333 16.6257 14.8333C18.1198 14.8333 19.474 14.5533 20.5323 14.0258C20.6231 13.9808 20.7048 13.9183 20.7923 13.87ZM4.12565 17.2033C4.21315 17.2517 4.29482 17.3142 4.38648 17.3592C5.44398 17.8867 6.79815 18.1667 8.29232 18.1667C9.78648 18.1667 11.1407 17.8867 12.199 17.3592C12.2898 17.3142 12.3715 17.2517 12.459 17.2033V18.1667C12.459 18.4083 12.1957 18.805 11.4432 19.1825C10.6915 19.56 9.56148 19.8333 8.29232 19.8333C7.02315 19.8333 5.89315 19.56 5.14148 19.1825C4.38898 18.805 4.12565 18.4075 4.12565 18.1667V17.2033Z" fill="#BC42FF"/>
</g>
</svg>
