<svg width="25" height="25" viewBox="0 0 25 25" fill="none" xmlns="http://www.w3.org/2000/svg">
<g id="ri:exchange-funds-line">
<path id="Vector" d="M19.834 15.603C20.4829 14.0613 20.6322 12.355 20.2611 10.724C19.89 9.09303 19.017 7.61938 17.7649 6.51024C16.5129 5.4011 14.9447 4.71225 13.2809 4.54055C11.617 4.36884 9.94121 4.72292 8.48902 5.55299L7.49702 3.81599C9.01466 2.9486 10.7332 2.49435 12.4812 2.49856C14.2292 2.50278 15.9456 2.9653 17.459 3.83999C21.949 6.43199 23.669 11.982 21.576 16.61L22.918 17.384L18.753 19.598L18.588 14.884L19.834 15.603ZM5.08402 9.39699C4.43517 10.9387 4.28581 12.645 4.65694 14.276C5.02807 15.9069 5.90104 17.3806 7.1531 18.4897C8.40516 19.5989 9.97335 20.2877 11.6372 20.4594C13.301 20.6311 14.9768 20.2771 16.429 19.447L17.421 21.184C15.9034 22.0514 14.1848 22.5056 12.4368 22.5014C10.6888 22.4972 8.97246 22.0347 7.45902 21.16C2.96902 18.568 1.24902 13.018 3.34202 8.38999L1.99902 7.61699L6.16402 5.40299L6.32902 10.117L5.08302 9.39799L5.08402 9.39699ZM13.874 15.328L11.043 12.5L8.21502 15.328L6.80102 13.914L11.044 9.67199L13.873 12.5L16.702 9.67199L18.116 11.086L13.873 15.328H13.874Z" fill="#BC42FF"/>
</g>
</svg>
